PathFileType	4	(X/Y/Z)	C:/Users/beibeiliu/ov580/test_trc\sequence.17_training_dense_left.trc
DataRate	CameraRate	NumFrames	NumMarkers	Units	OrigDataRate	OrigDataStartFrame	OrigNumFrames
120	120	8	19	mm	120	228	303
Frame#	Time	ThumbCMC			ThumbMCP			ThumbIP			ThumbTip			IndexMCP			IndexPIP			IndexTip			MiddleMCP			MiddlePIP			MiddleTip			RingMCP			RingPIP			RingTip			PinkyMCP			PinkyPIP			PinkyTip			BackHand1			BackHand2			BackHand3	
		X0	Y0	Z0	X1	Y1	Z1	X2	Y2	Z2	X3	Y3	Z3	X4	Y4	Z4	X5	Y5	Z5	X6	Y6	Z6	X7	Y7	Z7	X8	Y8	Z8	X9	Y9	Z9	X10	Y10	Z10	X11	Y11	Z11	X12	Y12	Z12	X13	Y13	Z13	X14	Y14	Z14	X15	Y15	Z15	X16	Y16	Z16	X17	Y17	Z17	X18	Y18	Z18	
227	1.89167	-265.946	31.211	25.2469	-265.096	54.0038	12.3821	-272.745	71.6614	2.02945	-283.78	86.5447	-3.87754	-267.162	34.5555	-40.3309	-267.453	46.3968	-59.4235	-263.69	60.1077	-80.5922	-242.195	43.4148	-39.3089	-228.884	66.6568	-23.2263	-237.185	51.4527	3.91312	-220.67	39.6188	-33.5931	-220.339	56.3701	-11.6458	-230.68	37.909	8.8326	-211.642	26.6299	-26.4121	-208.219	45.729	-12.1546	-222.185	35.7477	9.48948	-240.557	-4.09827	-9.49883	-238.47	-11.9864	19.4898	-265.273	2.99258	7.69937	
228	1.9	-266.587	34.769	25.0025	-261.821	55.7645	12.837	-268.903	73.596	1.46085	-281.795	89.9817	-0.695947	-268.203	34.4672	-44.1325	-268.502	43.8786	-61.2431	-269.316	55.3923	-83.7586	-242.802	40.9256	-42.3245	-227.042	62.2846	-29.3962	-232.434	51.7219	-1.52215	-223.35	30.783	-35.1041	-220.427	53.7118	-17.305	-229.117	43.0678	3.97462	-211.596	22.0319	-28.8539	-210.485	43.4083	-11.4445	-227.903	31.5338	3.10363	-241.268	-5.77053	-7.66854	-243.736	-11.7885	20.2018	-266.266	5.23463	11.5277	
229	1.90833	-263.511	37.7019	22.8069	-258.437	58.8442	10.8213	-265.191	75.8951	-1.05205	-277.786	93.8506	-5.61662	-275.402	35.425	-41.2721	-274.082	43.0589	-61.9469	-273.05	50.0565	-81.9525	-247.882	36.4799	-42.9736	-227.519	61.1873	-33.7713	-229.156	51.2502	-5.70483	-226.413	29.7579	-39.8618	-216.723	48.3962	-21.822	-228.032	37.1293	3.05642	-214.313	21.5807	-32.8434	-210.35	38.2351	-20.0069	-226.006	30.2429	3.62577	-246.355	-3.87227	-5.92381	-244.222	-11.9644	21.1778	-265.69	6.48631	8.17034	
230	1.91667	-261.897	42.1182	22.9745	-256.324	61.1147	3.42434	-261.804	78.5455	-5.06396	-270.936	95.4708	-8.91156	-278.097	34.4692	-39.4715	-278.179	40.8463	-63.6016	-279.041	45.1348	-85.0994	-247.83	30.7875	-46.3836	-228.145	55.5082	-40.9332	-231.901	49.695	-7.23927	-234.193	27.2705	-40.9753	-216.513	42.6476	-29.0471	-228.193	40.3011	-2.61496	-219.479	12.6892	-35.001	-214.391	34.3228	-20.2399	-228.719	26.2394	0.546282	-252.968	-5.51419	-7.70346	-251.738	-6.08318	20.2916	-269.356	9.45097	11.5723	
231	1.925	-259.369	43.967	19.661	-254.721	65.125	3.47764	-258.52	79.8644	-8.3592	-263.163	96.2284	-8.28668	-283.054	37.8865	-39.7491	-284.508	41.5565	-59.9043	-286.512	41.2059	-86.171	-255.275	34.3035	-47.305	-230.281	50.7534	-42.6582	-230.3	46.7761	-10.6871	-238.108	22.7461	-43.2149	-219.061	36.1901	-31.5843	-228.045	35.0825	-4.77893	-230.332	8.04902	-35.041	-217.751	27.3598	-25.7274	-226.811	26.8932	-3.03683	-260.219	-4.18893	-4.23123	-255.444	-6.66877	22.9058	-271.823	14.0459	14.1125	
232	1.93333	-256.975	46.1181	19.7972	-250.106	59.448	-1.71863	-253.922	78.1127	-10.7277	-255.809	92.4881	-12.9575	-286.741	36.7982	-38.2258	-290.717	41.6934	-57.3429	-294.747	42.7199	-78.2215	-258.411	27.8818	-48.3512	-233.532	44.6813	-47.2968	-227.855	43.0986	-18.0773	-241.203	15.8486	-44.3514	-225.413	32.6689	-33.8443	-229.708	31.0188	-5.33823	-235.595	5.70293	-37.2793	-219.947	20.3979	-26.1604	-232.275	21.6348	-1.68656	-264.058	-2.84176	1.80993	-257.246	-5.72402	26.2168	-272.749	16.9282	20.3802	
233	1.94167	-252.575	45.583	23.1121	-247.244	57.362	-0.890507	-249.252	76.0453	-11.8617	-255.178	94.5481	-20.1563	-288.872	38.2177	-32.5166	-296.201	40.0457	-54.8959	-301.626	39.2746	-75.9212	-265.771	25.5339	-43.2857	-239.788	36.1257	-51.6229	-231.25	37.0788	-16.9227	-253.398	12.6217	-39.628	-227.586	24.0001	-36.1567	-232.951	28.7482	-5.11982	-243.472	-0.620056	-34.9309	-226.324	16.8717	-26.7965	-231.573	17.6893	-4.63142	-268.373	-6.68854	3.20179	-260.257	-5.15782	29.8877	-275.348	18.8921	18.5513	
234	1.95	-252.799	47.3467	19.6726	-244.216	56.4119	-1.82441	-248.189	73.3997	-17.5396	-249.06	85.7683	-27.3121	-293.934	39.4528	-30.9815	-301.037	40.7439	-52.5679	-308.848	42.9643	-71.1561	-270.851	24.7223	-44.253	-242.526	32.6215	-48.8457	-233.965	33.4438	-20.1079	-256.211	10.132	-41.7416	-235.048	20.7856	-36.3497	-234.235	23.0194	-6.49963	-252.107	-3.26072	-31.7119	-230.874	9.43376	-28.6569	-235.104	17.0063	-3.06636	-274.762	-1.88303	7.14119	-264.868	-0.414104	33.5606	-275.987	22.2412	24.2335	
